<svg width="20" height="21" viewBox="0 0 20 21" fill="none" xmlns="http://www.w3.org/2000/svg">
    <path d="M5.48629 5.07041C5.48629 2.68434 7.42058 0.750039 9.80663 0.750039C10.9556 0.745169 12.0592 1.1982 12.8734 2.00896C13.6876 2.81971 14.1453 3.9214 14.1453 5.07041M6.84098 9.57382H6.88675M12.6716 9.57382H12.7174M5.62359 19.972H13.9714C17.0377 19.972 19.3901 18.8644 18.722 14.4068L17.9439 8.36559C17.532 6.14133 16.1133 5.29007 14.8684 5.29007H4.68995C3.42679 5.29007 2.09041 6.20541 1.61443 8.36559L0.8364 14.4068C0.2689 18.361 2.55723 19.972 5.62359 19.972Z" stroke="#8F959E" stroke-width="1.5" stroke-linecap="round" stroke-linejoin="round"/>
</svg>
