<svg width="25" height="41" viewBox="0 0 25 41" fill="none" xmlns="http://www.w3.org/2000/svg">
    <path d="M8.19341 5.70939C8.19341 3.32332 10.1277 1.38902 12.5138 1.38902C13.6628 1.38415 14.7664 1.83718 15.5806 2.64794C16.3948 3.45869 16.8525 4.56038 16.8525 5.70939M9.5481 10.2128H9.59387M15.3788 10.2128H15.4246M8.33071 20.611H16.6786C19.7449 20.611 22.0973 19.5034 21.4292 15.0458L20.6511 9.00457C20.2392 6.78031 18.8205 5.92905 17.5756 5.92905H7.39707C6.13391 5.92905 4.79753 6.84439 4.32155 9.00457L3.54352 15.0458C2.97602 19 5.26435 20.611 8.33071 20.611Z" stroke="#8F959E" stroke-width="1.5" stroke-linecap="round" stroke-linejoin="round"/>
    <path d="M8.21626 29.611H7.15945C7.09695 29.307 6.98757 29.04 6.83132 28.8099C6.67791 28.5798 6.49041 28.3866 6.26882 28.2303C6.05007 28.0713 5.80717 27.9519 5.54013 27.8724C5.27308 27.7928 4.99467 27.7531 4.7049 27.7531C4.17649 27.7531 3.6978 27.8866 3.26882 28.1536C2.84268 28.4207 2.5032 28.8141 2.25036 29.334C2.00036 29.8539 1.87536 30.4917 1.87536 31.2474C1.87536 32.0031 2.00036 32.6409 2.25036 33.1607C2.5032 33.6806 2.84268 34.0741 3.26882 34.3411C3.6978 34.6082 4.17649 34.7417 4.7049 34.7417C4.99467 34.7417 5.27308 34.7019 5.54013 34.6224C5.80717 34.5428 6.05007 34.4249 6.26882 34.2687C6.49041 34.1096 6.67791 33.915 6.83132 33.6849C6.98757 33.4519 7.09695 33.1849 7.15945 32.8838H8.21626C8.13672 33.3298 7.99183 33.7289 7.78161 34.0812C7.57138 34.4335 7.31001 34.7332 6.99751 34.9803C6.68501 35.2247 6.33416 35.4107 5.94496 35.5386C5.55859 35.6664 5.14524 35.7303 4.7049 35.7303C3.96058 35.7303 3.29865 35.5485 2.71911 35.1849C2.13956 34.8213 1.68359 34.3042 1.35121 33.6338C1.01882 32.9633 0.852628 32.1678 0.852628 31.2474C0.852628 30.3269 1.01882 29.5315 1.35121 28.861C1.68359 28.1906 2.13956 27.6735 2.71911 27.3099C3.29865 26.9462 3.96058 26.7644 4.7049 26.7644C5.14524 26.7644 5.55859 26.8284 5.94496 26.9562C6.33416 27.084 6.68501 27.2715 6.99751 27.5187C7.31001 27.763 7.57138 28.0613 7.78161 28.4136C7.99183 28.763 8.13672 29.1622 8.21626 29.611ZM11.7138 35.7644C11.299 35.7644 10.9226 35.6863 10.5845 35.5301C10.2464 35.371 9.97798 35.1423 9.77912 34.844C9.58026 34.5428 9.48082 34.1792 9.48082 33.7531C9.48082 33.3781 9.55469 33.0741 9.70241 32.8411C9.85014 32.6053 10.0476 32.4207 10.2947 32.2872C10.5419 32.1536 10.8146 32.0542 11.1129 31.9889C11.4141 31.9207 11.7166 31.8667 12.0206 31.8269C12.4183 31.7758 12.7408 31.7374 12.9879 31.7119C13.2379 31.6835 13.4197 31.6366 13.5334 31.5712C13.6499 31.5059 13.7081 31.3923 13.7081 31.2303V31.1962C13.7081 30.7758 13.593 30.4491 13.3629 30.2161C13.1357 29.9832 12.7905 29.8667 12.3274 29.8667C11.8473 29.8667 11.4709 29.9718 11.1982 30.182C10.9254 30.3923 10.7337 30.6167 10.6229 30.8553L9.66832 30.5144C9.83878 30.1167 10.0661 29.807 10.3501 29.5855C10.6371 29.361 10.9496 29.2048 11.2876 29.1167C11.6286 29.0258 11.9638 28.9803 12.2933 28.9803C12.5036 28.9803 12.745 29.0059 13.0178 29.057C13.2933 29.1053 13.5589 29.2062 13.8146 29.3596C14.0732 29.513 14.2876 29.7445 14.4581 30.0542C14.6286 30.3639 14.7138 30.7786 14.7138 31.2985V35.611H13.7081V34.7247H13.657C13.5888 34.8667 13.4751 35.0187 13.3161 35.1806C13.157 35.3426 12.9453 35.4803 12.6811 35.594C12.4169 35.7076 12.0945 35.7644 11.7138 35.7644ZM11.8672 34.861C12.2649 34.861 12.6001 34.7829 12.8729 34.6266C13.1484 34.4704 13.3558 34.2687 13.495 34.0215C13.6371 33.7744 13.7081 33.5144 13.7081 33.2417V32.3212C13.6655 32.3724 13.5717 32.4193 13.4268 32.4619C13.2848 32.5016 13.12 32.5372 12.9325 32.5684C12.7479 32.5968 12.5675 32.6224 12.3913 32.6451C12.218 32.665 12.0774 32.682 11.9695 32.6963C11.7081 32.7303 11.4638 32.7857 11.2365 32.8624C11.0121 32.9363 10.8303 33.0485 10.6911 33.1991C10.5547 33.3468 10.4865 33.5485 10.4865 33.8042C10.4865 34.1536 10.6158 34.4178 10.8743 34.5968C11.1357 34.773 11.4666 34.861 11.8672 34.861ZM16.5494 35.611V29.0656H17.521V30.0542H17.5891C17.7085 29.7303 17.9244 29.4676 18.2369 29.2659C18.5494 29.0641 18.9016 28.9633 19.2937 28.9633C19.3675 28.9633 19.4599 28.9647 19.5707 28.9676C19.6815 28.9704 19.7653 28.9747 19.8221 28.9803V30.0031C19.788 29.9945 19.7099 29.9818 19.5877 29.9647C19.4684 29.9448 19.342 29.9349 19.2085 29.9349C18.8903 29.9349 18.6062 30.0016 18.3562 30.1352C18.109 30.2659 17.913 30.4477 17.7681 30.6806C17.6261 30.9107 17.555 31.1735 17.555 31.469V35.611H16.5494ZM24.271 29.0656V29.9178H20.8789V29.0656H24.271ZM21.8675 27.4974H22.8732V33.736C22.8732 34.0201 22.9144 34.2332 22.9968 34.3752C23.082 34.5144 23.19 34.6082 23.3207 34.6565C23.4542 34.7019 23.5948 34.7247 23.7425 34.7247C23.8533 34.7247 23.9442 34.719 24.0153 34.7076C24.0863 34.6934 24.1431 34.682 24.1857 34.6735L24.3903 35.5769C24.3221 35.6025 24.2269 35.6281 24.1048 35.6536C23.9826 35.682 23.8278 35.6963 23.6403 35.6963C23.3562 35.6963 23.0778 35.6352 22.805 35.513C22.5352 35.3909 22.3107 35.2048 22.1317 34.9548C21.9556 34.7048 21.8675 34.3894 21.8675 34.0088V27.4974Z" fill="#8F959E"/>
</svg>
