<svg width="21" height="22" viewBox="0 0 21 22" fill="none" xmlns="http://www.w3.org/2000/svg">
    <path d="M7.40722 19.5214V16.4547C7.4072 15.6746 8.04312 15.0408 8.831 15.0356H11.7171C12.5087 15.0356 13.1505 15.6709 13.1505 16.4547V19.5309C13.1503 20.1932 13.6843 20.7345 14.353 20.75H16.2771C18.1951 20.75 19.75 19.2107 19.75 17.3118V8.58784C19.7398 7.84083 19.3855 7.13935 18.788 6.68303L12.2077 1.4353C11.0549 0.521567 9.4162 0.521567 8.2634 1.4353L1.71203 6.69256C1.11226 7.14702 0.75739 7.84967 0.75 8.59736V17.3118C0.75 19.2107 2.30488 20.75 4.22291 20.75H6.14696C6.83235 20.75 7.38797 20.1999 7.38797 19.5214" stroke="#8F959E" stroke-width="1.5" stroke-linecap="round" stroke-linejoin="round"/>
</svg>
