<svg width="45" height="39" viewBox="0 0 45 39" fill="none" xmlns="http://www.w3.org/2000/svg">
    <path d="M26.2393 5.05301C27.3046 5.39331 28.0615 6.34971 28.1561 7.47499M22.261 18.8538C20.0904 17.5179 18.0711 15.9456 16.2393 14.1652C14.9514 12.8829 13.971 11.3198 13.3731 9.5954C12.2971 6.25031 13.5539 2.42083 17.0711 1.28752C18.9196 0.692433 20.9384 1.03255 22.4961 2.20148C24.0543 1.03398 26.0725 0.693983 27.9211 1.28752C31.4383 2.42083 32.7041 6.25031 31.6281 9.5954C31.0302 11.3198 30.0498 12.8829 28.7619 14.1652C26.9301 15.9456 24.9108 17.5179 22.7402 18.8538L22.5051 19L22.261 18.8538Z" stroke="#8F959E" stroke-width="1.5" stroke-linecap="round" stroke-linejoin="round"/>
    <path d="M3.18111 34L0.794744 25.2727H1.86861L3.69247 32.3807H3.7777L5.63565 25.2727H6.82884L8.68679 32.3807H8.77202L10.5959 25.2727H11.6697L9.28338 34H8.19247L6.26634 27.0455H6.19815L4.27202 34H3.18111ZM12.8501 34V27.4545H13.8558V34H12.8501ZM13.3615 26.3636C13.1655 26.3636 12.9964 26.2969 12.8544 26.1634C12.7152 26.0298 12.6456 25.8693 12.6456 25.6818C12.6456 25.4943 12.7152 25.3338 12.8544 25.2003C12.9964 25.0668 13.1655 25 13.3615 25C13.5575 25 13.7251 25.0668 13.8643 25.2003C14.0064 25.3338 14.0774 25.4943 14.0774 25.6818C14.0774 25.8693 14.0064 26.0298 13.8643 26.1634C13.7251 26.2969 13.5575 26.3636 13.3615 26.3636ZM20.3342 28.9205L19.4308 29.1761C19.3739 29.0256 19.2901 28.8793 19.1793 28.7372C19.0714 28.5923 18.9237 28.473 18.7362 28.3793C18.5487 28.2855 18.3086 28.2386 18.016 28.2386C17.6154 28.2386 17.2816 28.331 17.0146 28.5156C16.7504 28.6974 16.6183 28.929 16.6183 29.2102C16.6183 29.4602 16.7092 29.6577 16.891 29.8026C17.0728 29.9474 17.3569 30.0682 17.7433 30.1648L18.7148 30.4034C19.3001 30.5455 19.7362 30.7628 20.0231 31.0554C20.31 31.3452 20.4535 31.7187 20.4535 32.1761C20.4535 32.5511 20.3455 32.8864 20.1296 33.1818C19.9165 33.4773 19.6183 33.7102 19.2347 33.8807C18.8512 34.0511 18.4052 34.1364 17.8967 34.1364C17.229 34.1364 16.6765 33.9915 16.239 33.7017C15.8015 33.4119 15.5245 32.9886 15.408 32.4318L16.3626 32.1932C16.4535 32.5455 16.6254 32.8097 16.8782 32.9858C17.1339 33.1619 17.4677 33.25 17.8796 33.25C18.3484 33.25 18.7205 33.1506 18.9961 32.9517C19.2745 32.75 19.4137 32.5085 19.4137 32.2273C19.4137 32 19.3342 31.8097 19.1751 31.6562C19.016 31.5 18.7717 31.3835 18.4421 31.3068L17.3512 31.0511C16.7518 30.9091 16.3114 30.6889 16.0302 30.3906C15.7518 30.0895 15.6126 29.7131 15.6126 29.2614C15.6126 28.892 15.7163 28.5653 15.9237 28.2812C16.1339 27.9972 16.4194 27.7741 16.7802 27.6122C17.1438 27.4503 17.5558 27.3693 18.016 27.3693C18.6637 27.3693 19.1722 27.5114 19.5415 27.7955C19.9137 28.0795 20.1779 28.4545 20.3342 28.9205ZM22.973 30.0625V34H21.9673V25.2727H22.973V28.4773H23.0582C23.2116 28.1392 23.4418 27.8707 23.7486 27.6719C24.0582 27.4702 24.4702 27.3693 24.9844 27.3693C25.4304 27.3693 25.821 27.4588 26.1562 27.6378C26.4915 27.8139 26.7514 28.0852 26.9361 28.4517C27.1236 28.8153 27.2173 29.2784 27.2173 29.8409V34H26.2116V29.9091C26.2116 29.3892 26.0767 28.9872 25.8068 28.7031C25.5398 28.4162 25.169 28.2727 24.6946 28.2727C24.3651 28.2727 24.0696 28.3423 23.8082 28.4815C23.5497 28.6207 23.3452 28.8239 23.1946 29.0909C23.0469 29.358 22.973 29.6818 22.973 30.0625ZM30.0629 25.2727V34H29.0572V25.2727H30.0629ZM31.9048 34V27.4545H32.9105V34H31.9048ZM32.4162 26.3636C32.2202 26.3636 32.0511 26.2969 31.9091 26.1634C31.7699 26.0298 31.7003 25.8693 31.7003 25.6818C31.7003 25.4943 31.7699 25.3338 31.9091 25.2003C32.0511 25.0668 32.2202 25 32.4162 25C32.6122 25 32.7798 25.0668 32.919 25.2003C33.0611 25.3338 33.1321 25.4943 33.1321 25.6818C33.1321 25.8693 33.0611 26.0298 32.919 26.1634C32.7798 26.2969 32.6122 26.3636 32.4162 26.3636ZM39.3888 28.9205L38.4854 29.1761C38.4286 29.0256 38.3448 28.8793 38.234 28.7372C38.1261 28.5923 37.9783 28.473 37.7908 28.3793C37.6033 28.2855 37.3633 28.2386 37.0707 28.2386C36.6701 28.2386 36.3363 28.331 36.0692 28.5156C35.805 28.6974 35.6729 28.929 35.6729 29.2102C35.6729 29.4602 35.7638 29.6577 35.9457 29.8026C36.1275 29.9474 36.4116 30.0682 36.7979 30.1648L37.7695 30.4034C38.3548 30.5455 38.7908 30.7628 39.0778 31.0554C39.3647 31.3452 39.5082 31.7187 39.5082 32.1761C39.5082 32.5511 39.4002 32.8864 39.1843 33.1818C38.9712 33.4773 38.6729 33.7102 38.2894 33.8807C37.9059 34.0511 37.4599 34.1364 36.9513 34.1364C36.2837 34.1364 35.7312 33.9915 35.2937 33.7017C34.8562 33.4119 34.5792 32.9886 34.4627 32.4318L35.4173 32.1932C35.5082 32.5455 35.68 32.8097 35.9329 32.9858C36.1886 33.1619 36.5224 33.25 36.9343 33.25C37.4031 33.25 37.7752 33.1506 38.0508 32.9517C38.3292 32.75 38.4684 32.5085 38.4684 32.2273C38.4684 32 38.3888 31.8097 38.2298 31.6562C38.0707 31.5 37.8263 31.3835 37.4968 31.3068L36.4059 31.0511C35.8065 30.9091 35.3661 30.6889 35.0849 30.3906C34.8065 30.0895 34.6673 29.7131 34.6673 29.2614C34.6673 28.892 34.771 28.5653 34.9783 28.2812C35.1886 27.9972 35.4741 27.7741 35.8349 27.6122C36.1985 27.4503 36.6104 27.3693 37.0707 27.3693C37.7184 27.3693 38.2269 27.5114 38.5962 27.7955C38.9684 28.0795 39.2326 28.4545 39.3888 28.9205ZM43.8686 27.4545V28.3068H40.4766V27.4545H43.8686ZM41.4652 25.8864H42.4709V32.125C42.4709 32.4091 42.5121 32.6222 42.5945 32.7642C42.6797 32.9034 42.7876 32.9972 42.9183 33.0455C43.0518 33.0909 43.1925 33.1136 43.3402 33.1136C43.451 33.1136 43.5419 33.108 43.6129 33.0966C43.6839 33.0824 43.7408 33.071 43.7834 33.0625L43.9879 33.9659C43.9197 33.9915 43.8246 34.017 43.7024 34.0426C43.5803 34.071 43.4254 34.0852 43.2379 34.0852C42.9538 34.0852 42.6754 34.0241 42.4027 33.902C42.1328 33.7798 41.9084 33.5938 41.7294 33.3438C41.5533 33.0938 41.4652 32.7784 41.4652 32.3977V25.8864Z" fill="#8F959E"/>
</svg>
