<svg width="21" height="20" viewBox="0 0 21 20" fill="none" xmlns="http://www.w3.org/2000/svg">
    <path d="M13.9859 4.80303C15.0512 5.14333 15.8081 6.09973 15.9027 7.22501M10.0076 18.6038C7.83701 17.2679 5.81772 15.6956 3.9859 13.9152C2.69805 12.6329 1.71762 11.0698 1.11971 9.34542C0.0437524 6.00033 1.30054 2.17085 4.81773 1.03754C6.66622 0.442446 8.68501 0.782566 10.2427 1.9515C11.8009 0.783996 13.8191 0.443996 15.6677 1.03754C19.1849 2.17085 20.4507 6.00033 19.3747 9.34542C18.7768 11.0698 17.7964 12.6329 16.5085 13.9152C14.6767 15.6956 12.6574 17.2679 10.4868 18.6038L10.2517 18.75L10.0076 18.6038Z" stroke="#8F959E" stroke-width="1.5" stroke-linecap="round" stroke-linejoin="round"/>
</svg>
