<svg width="35" height="41" viewBox="0 0 35 41" fill="none" xmlns="http://www.w3.org/2000/svg">
    <path d="M14.6572 19.7714V16.7047C14.6572 15.9246 15.2931 15.2908 16.081 15.2856H18.9671C19.7587 15.2856 20.4005 15.9209 20.4005 16.7047V19.7809C20.4003 20.4432 20.9343 20.9845 21.603 21H23.5271C25.4451 21 27 19.4607 27 17.5618V8.83784C26.9898 8.09083 26.6355 7.38935 26.038 6.93303L19.4577 1.6853C18.3049 0.771567 16.6662 0.771567 15.5134 1.6853L8.96203 6.94256C8.36226 7.39702 8.00739 8.09967 8 8.84736V17.5618C8 19.4607 9.55488 21 11.4729 21H13.397C14.0823 21 14.638 20.4499 14.638 19.7714" stroke="#9775FA" stroke-width="1.5" stroke-linecap="round" stroke-linejoin="round"/>
    <path d="M1.8283 36V27.2727H2.88512V31.1591H7.53853V27.2727H8.59535V36H7.53853V32.0966H2.88512V36H1.8283ZM13.2338 36.1364C12.6429 36.1364 12.1245 35.9957 11.6784 35.7145C11.2353 35.4332 10.8887 35.0398 10.6387 34.5341C10.3915 34.0284 10.2679 33.4375 10.2679 32.7614C10.2679 32.0795 10.3915 31.4844 10.6387 30.9759C10.8887 30.4673 11.2353 30.0724 11.6784 29.7912C12.1245 29.5099 12.6429 29.3693 13.2338 29.3693C13.8248 29.3693 14.3418 29.5099 14.785 29.7912C15.231 30.0724 15.5776 30.4673 15.8248 30.9759C16.0748 31.4844 16.1998 32.0795 16.1998 32.7614C16.1998 33.4375 16.0748 34.0284 15.8248 34.5341C15.5776 35.0398 15.231 35.4332 14.785 35.7145C14.3418 35.9957 13.8248 36.1364 13.2338 36.1364ZM13.2338 35.233C13.6827 35.233 14.052 35.1179 14.3418 34.8878C14.6316 34.6577 14.8461 34.3551 14.9853 33.9801C15.1245 33.6051 15.1941 33.1989 15.1941 32.7614C15.1941 32.3239 15.1245 31.9162 14.9853 31.5384C14.8461 31.1605 14.6316 30.8551 14.3418 30.6222C14.052 30.3892 13.6827 30.2727 13.2338 30.2727C12.785 30.2727 12.4157 30.3892 12.1259 30.6222C11.8361 30.8551 11.6216 31.1605 11.4824 31.5384C11.3432 31.9162 11.2736 32.3239 11.2736 32.7614C11.2736 33.1989 11.3432 33.6051 11.4824 33.9801C11.6216 34.3551 11.8361 34.6577 12.1259 34.8878C12.4157 35.1179 12.785 35.233 13.2338 35.233ZM17.7349 36V29.4545H18.7065V30.4773H18.7917C18.9281 30.1278 19.1483 29.8565 19.4522 29.6634C19.7562 29.4673 20.1213 29.3693 20.5474 29.3693C20.9792 29.3693 21.3386 29.4673 21.6255 29.6634C21.9153 29.8565 22.1412 30.1278 22.3031 30.4773H22.3713C22.5389 30.1392 22.7903 29.8707 23.1255 29.6719C23.4608 29.4702 23.8627 29.3693 24.3315 29.3693C24.9167 29.3693 25.3954 29.5526 25.7676 29.919C26.1397 30.2827 26.3258 30.8494 26.3258 31.6193V36H25.3201V31.6193C25.3201 31.1364 25.188 30.7912 24.9238 30.5838C24.6596 30.3764 24.3485 30.2727 23.9906 30.2727C23.5304 30.2727 23.1738 30.4119 22.921 30.6903C22.6681 30.9659 22.5417 31.3153 22.5417 31.7386V36H21.519V31.517C21.519 31.1449 21.3983 30.8452 21.1568 30.6179C20.9153 30.3878 20.6042 30.2727 20.2235 30.2727C19.9622 30.2727 19.7179 30.3423 19.4906 30.4815C19.2662 30.6207 19.0843 30.8139 18.9451 31.0611C18.8088 31.3054 18.7406 31.5881 18.7406 31.9091V36H17.7349ZM30.9089 36.1364C30.2782 36.1364 29.7342 35.9972 29.2768 35.7188C28.8223 35.4375 28.4714 35.0455 28.2243 34.5426C27.9799 34.0369 27.8578 33.4489 27.8578 32.7784C27.8578 32.108 27.9799 31.517 28.2243 31.0057C28.4714 30.4915 28.8152 30.0909 29.2555 29.804C29.6987 29.5142 30.2157 29.3693 30.8066 29.3693C31.1475 29.3693 31.4842 29.4261 31.8166 29.5398C32.149 29.6534 32.4515 29.8381 32.7243 30.0938C32.997 30.3466 33.2143 30.6818 33.3762 31.0994C33.5382 31.517 33.6191 32.0312 33.6191 32.642V33.0682H28.5737V32.1989H32.5964C32.5964 31.8295 32.5225 31.5 32.3748 31.2102C32.2299 30.9205 32.0225 30.6918 31.7527 30.5241C31.4856 30.3565 31.1703 30.2727 30.8066 30.2727C30.4061 30.2727 30.0595 30.3722 29.7669 30.571C29.4771 30.767 29.2541 31.0227 29.0978 31.3381C28.9416 31.6534 28.8635 31.9915 28.8635 32.3523V32.9318C28.8635 33.4261 28.9487 33.8452 29.1191 34.1889C29.2924 34.5298 29.5325 34.7898 29.8393 34.9688C30.1461 35.1449 30.5027 35.233 30.9089 35.233C31.1731 35.233 31.4118 35.196 31.6248 35.1222C31.8407 35.0455 32.0268 34.9318 32.1831 34.7812C32.3393 34.6278 32.46 34.4375 32.5453 34.2102L33.5169 34.483C33.4146 34.8125 33.2427 35.1023 33.0012 35.3523C32.7598 35.5994 32.4615 35.7926 32.1064 35.9318C31.7512 36.0682 31.3521 36.1364 30.9089 36.1364Z" fill="#9775FA"/>
</svg>
