<svg width="25" height="25" viewBox="0 0 25 25" fill="none" xmlns="http://www.w3.org/2000/svg">
    <path fill-rule="evenodd" clip-rule="evenodd" d="M7.79771 22.3958H16.4934C19.6874 22.3958 22.1379 21.2421 21.4419 16.5988L20.6314 10.3058C20.2023 7.98887 18.7245 7.10214 17.4278 7.10214H6.82517C5.50938 7.10214 4.11731 8.05562 3.6215 10.3058L2.81105 16.5988C2.21991 20.7177 4.60358 22.3958 7.79771 22.3958Z" stroke="#1D1E20" stroke-width="1.5" stroke-linecap="round" stroke-linejoin="round"/>
    <path d="M7.65527 6.87332C7.65527 4.38783 9.67016 2.37293 12.1556 2.37293C13.3525 2.36786 14.5021 2.83977 15.3502 3.68431C16.1983 4.52884 16.6751 5.67644 16.6751 6.87332" stroke="#1D1E20" stroke-width="1.5" stroke-linecap="round" stroke-linejoin="round"/>
    <path d="M9.06641 11.5644H9.11408" stroke="#1D1E20" stroke-width="1.5" stroke-linecap="round" stroke-linejoin="round"/>
    <path d="M15.1396 11.5644H15.1874" stroke="#1D1E20" stroke-width="1.5" stroke-linecap="round" stroke-linejoin="round"/>
</svg>
