<svg width="13" height="13" viewBox="0 0 13 13" fill="none" xmlns="http://www.w3.org/2000/svg">
    <path d="M6.06384 0.624122H3.72697C1.80509 0.624122 0.600098 1.98475 0.600098 3.911V9.10725C0.600098 11.0335 1.79947 12.3941 3.72697 12.3941H9.24197C11.1701 12.3941 12.3695 11.0335 12.3695 9.10725V6.58975M8.35939 1.75757L11.2131 4.61132M4.39852 5.70656L9.06915 1.03594C9.65102 0.454686 10.5941 0.454686 11.176 1.03594L11.9366 1.79656C12.5185 2.37844 12.5185 3.32219 11.9366 3.90344L7.24352 8.59656C6.98915 8.85094 6.64415 8.99406 6.28415 8.99406H3.9429L4.00165 6.63156C4.0104 6.28406 4.15227 5.95281 4.39852 5.70656Z" stroke="#FEFEFE" stroke-width="1.2" stroke-linecap="round" stroke-linejoin="round"/>
</svg>
