<svg width="25" height="25" viewBox="0 0 25 25" fill="none" xmlns="http://www.w3.org/2000/svg">
    <circle cx="12.5" cy="12.5" r="12" stroke="#DEDEDE"/>
    <path d="M17.0779 10.9176C17.0779 10.9176 16.7386 15.127 16.5417 16.9001C16.4479 17.747 15.9248 18.2433 15.0679 18.2589C13.4373 18.2883 11.8048 18.2901 10.1748 18.2558C9.35044 18.2389 8.83606 17.7364 8.74419 16.9045C8.54606 15.1158 8.20856 10.9176 8.20856 10.9176M17.9425 8.89983H7.34375M15.9003 8.89982C15.4096 8.89982 14.9871 8.55294 14.8909 8.07232L14.739 7.31232C14.6453 6.96169 14.3278 6.71919 13.9659 6.71919H11.3203C10.9584 6.71919 10.6409 6.96169 10.5471 7.31232L10.3953 8.07232C10.299 8.55294 9.8765 8.89982 9.38588 8.89982" stroke="#8F959E" stroke-width="1.3" stroke-linecap="round" stroke-linejoin="round"/>
</svg>
