<svg width="59" height="36" viewBox="0 0 59 36" fill="none" xmlns="http://www.w3.org/2000/svg">
    <path d="M57.8252 28.0605L58.5615 29.0713C41.3144 41.6279 25.2738 34.3101 19.3584 28.9902L21.0303 27.1309C26.3384 31.9046 41.0635 38.7176 57.0898 27.0498L57.8252 28.0605ZM15.0205 5.80273C17.364 5.80273 21.8115 6.46342 21.8115 12.2188V24.1533H18.9902V21.7002H18.8467C18.2728 22.8796 16.5988 24.5781 13.3945 24.5781C9.90328 24.5781 7.12904 22.5497 7.12891 19.0117C7.12891 14.8605 10.8474 14.117 14.2549 13.6807C17.6027 13.2561 18.9902 13.3738 18.9902 12.0293V11.9355C18.9902 9.6122 17.7108 8.25587 15.1162 8.25586C12.426 8.25586 10.9557 9.67129 10.334 10.9922L7.65527 10.0479C9.09014 6.74589 12.2467 5.80274 15.0205 5.80273ZM52.209 5.80273C54.5526 5.8028 59 6.4637 59 12.2188V24.1533H56.1787V21.7002H56.0352C55.4613 22.8795 53.7871 24.578 50.583 24.5781C47.0918 24.5781 44.3175 22.5497 44.3174 19.0117C44.3174 14.8604 48.0357 14.117 51.4434 13.6807C54.7912 13.2561 56.1787 13.3738 56.1787 12.0293V11.9355C56.1787 9.61231 54.899 8.256 52.3047 8.25586C49.6144 8.25586 48.1432 9.67129 47.5215 10.9922L44.8438 10.0479C46.2786 6.746 49.4352 5.80273 52.209 5.80273ZM2.82129 24.1533H0V0H2.82129V24.1533ZM40.4971 8.25586L30.3574 21.3701V21.5586H40.832V24.1533H26.4365V22.0303L36.8623 8.82129V8.63281H26.7705V6.03809H40.4971V8.25586ZM18.9902 15.0488C18.512 15.6149 15.3083 15.9454 14.1123 16.0869C11.9123 16.37 9.95117 17.0305 9.95117 19.1533C9.95136 21.0873 11.5775 22.0781 13.8252 22.0781C17.1726 22.078 18.99 19.8608 18.9902 17.5967V15.0488ZM56.1787 15.0488C55.7004 15.6149 52.4955 15.9454 51.2998 16.0869C49.0998 16.37 47.1387 17.0305 47.1387 19.1533C47.1389 21.0872 48.7651 22.078 51.0127 22.0781C54.3603 22.0781 56.1785 19.8609 56.1787 17.5967V15.0488Z" fill="#FEFEFE"/>
</svg>
