<svg width="30" height="10" viewBox="0 0 30 10" fill="none" xmlns="http://www.w3.org/2000/svg">
    <path d="M27.7775 9.56L27.4963 8.15375H24.3538L23.8538 9.55L21.335 9.555C22.5341 6.67143 23.7358 3.78893 24.94 0.9075C25.145 0.41875 25.5088 0.170001 26.045 0.172501C26.455 0.176251 27.1237 0.17625 28.0525 0.17375L30 9.55625L27.7775 9.56ZM25.0612 6.2275H27.0863L26.33 2.7025L25.0612 6.2275ZM8.825 0.17125L11.3575 0.17375L7.4425 9.56125L4.87875 9.55875C4.23406 7.07915 3.59739 4.59747 2.96875 2.11375C2.84375 1.61875 2.59625 1.2725 2.12 1.10875C1.69625 0.9625 0.99 0.7375 0 0.43125V0.175H4.04625C4.74625 0.175 5.155 0.51375 5.28625 1.20875C5.41875 1.905 5.75125 3.6775 6.28625 6.52625L8.825 0.17125ZM14.8375 0.17375L12.835 9.55875L10.425 9.55625L12.425 0.17125L14.8375 0.17375ZM19.725 0C20.4462 0 21.355 0.225 21.8775 0.43125L21.455 2.3775C20.9825 2.1875 20.205 1.93125 19.5513 1.94C18.6012 1.95625 18.0138 2.355 18.0138 2.7375C18.0138 3.36 19.0337 3.67375 20.0837 4.35375C21.2825 5.12875 21.44 5.825 21.425 6.58125C21.4087 8.15125 20.0837 9.7 17.2887 9.7C16.0138 9.68125 15.5538 9.57375 14.5138 9.205L14.9538 7.17375C16.0125 7.6175 16.4613 7.75875 17.3662 7.75875C18.195 7.75875 18.9062 7.42375 18.9125 6.84C18.9175 6.425 18.6625 6.21875 17.7325 5.70625C16.8025 5.1925 15.4975 4.48125 15.515 3.05375C15.5362 1.22625 17.2675 0 19.7262 0H19.725Z" fill="#3D93F8"/>
</svg>
